<mxfile host="app.diagrams.net" modified="2023-11-30T09:23:57.425Z" agent="Mozilla/5.0 (Windows NT 10.0; Win64; x64) AppleWebKit/537.36 (KHTML, like Gecko) Chrome/119.0.0.0 Safari/537.36 Edg/119.0.0.0" etag="7Kho9_hcrRy7jwzl1P2i" version="22.1.5" type="device">
  <diagram id="C5RBs43oDa-KdzZeNtuy" name="Page-1">
    <mxGraphModel dx="946" dy="1774" grid="1" gridSize="10" guides="1" tooltips="1" connect="1" arrows="1" fold="1" page="1" pageScale="1" pageWidth="827" pageHeight="1169" math="0" shadow="0">
      <root>
        <mxCell id="WIyWlLk6GJQsqaUBKTNV-0" />
        <mxCell id="WIyWlLk6GJQsqaUBKTNV-1" parent="WIyWlLk6GJQsqaUBKTNV-0" />
        <mxCell id="jaS103z9ZxJK8VQjzJih-0" style="edgeStyle=orthogonalEdgeStyle;rounded=0;orthogonalLoop=1;jettySize=auto;html=1;" edge="1" parent="WIyWlLk6GJQsqaUBKTNV-1" source="jaS103z9ZxJK8VQjzJih-1" target="jaS103z9ZxJK8VQjzJih-5">
          <mxGeometry relative="1" as="geometry" />
        </mxCell>
        <mxCell id="jaS103z9ZxJK8VQjzJih-1" value="start" style="ellipse;whiteSpace=wrap;html=1;" vertex="1" parent="WIyWlLk6GJQsqaUBKTNV-1">
          <mxGeometry x="30" y="360" width="120" height="80" as="geometry" />
        </mxCell>
        <mxCell id="jaS103z9ZxJK8VQjzJih-24" value="" style="edgeStyle=orthogonalEdgeStyle;rounded=0;orthogonalLoop=1;jettySize=auto;html=1;" edge="1" parent="WIyWlLk6GJQsqaUBKTNV-1" source="jaS103z9ZxJK8VQjzJih-5" target="jaS103z9ZxJK8VQjzJih-23">
          <mxGeometry relative="1" as="geometry" />
        </mxCell>
        <mxCell id="jaS103z9ZxJK8VQjzJih-5" value="&lt;div&gt;struct SinhVien sv[100];&lt;/div&gt;&lt;div&gt;&amp;nbsp; &amp;nbsp; int n = 0;&lt;/div&gt;&lt;div&gt;&amp;nbsp; &amp;nbsp; int choice;&lt;/div&gt;&lt;div&gt;&amp;nbsp; &amp;nbsp; int i;&lt;/div&gt;" style="shape=parallelogram;perimeter=parallelogramPerimeter;whiteSpace=wrap;html=1;fixedSize=1;" vertex="1" parent="WIyWlLk6GJQsqaUBKTNV-1">
          <mxGeometry x="10" y="490" width="160" height="60" as="geometry" />
        </mxCell>
        <mxCell id="jaS103z9ZxJK8VQjzJih-7" value="" style="edgeStyle=orthogonalEdgeStyle;rounded=0;orthogonalLoop=1;jettySize=auto;html=1;" edge="1" parent="WIyWlLk6GJQsqaUBKTNV-1" source="jaS103z9ZxJK8VQjzJih-8" target="jaS103z9ZxJK8VQjzJih-10">
          <mxGeometry relative="1" as="geometry" />
        </mxCell>
        <mxCell id="jaS103z9ZxJK8VQjzJih-8" value="start" style="ellipse;whiteSpace=wrap;html=1;" vertex="1" parent="WIyWlLk6GJQsqaUBKTNV-1">
          <mxGeometry x="90" y="-160" width="120" height="80" as="geometry" />
        </mxCell>
        <mxCell id="jaS103z9ZxJK8VQjzJih-9" value="" style="edgeStyle=orthogonalEdgeStyle;rounded=0;orthogonalLoop=1;jettySize=auto;html=1;" edge="1" parent="WIyWlLk6GJQsqaUBKTNV-1" source="jaS103z9ZxJK8VQjzJih-10" target="jaS103z9ZxJK8VQjzJih-11">
          <mxGeometry relative="1" as="geometry" />
        </mxCell>
        <mxCell id="jaS103z9ZxJK8VQjzJih-10" value="struct SinhVien" style="shape=parallelogram;perimeter=parallelogramPerimeter;whiteSpace=wrap;html=1;fixedSize=1;" vertex="1" parent="WIyWlLk6GJQsqaUBKTNV-1">
          <mxGeometry x="294" y="-150" width="120" height="60" as="geometry" />
        </mxCell>
        <mxCell id="jaS103z9ZxJK8VQjzJih-11" value="char hoTen[50];&lt;br&gt;&amp;nbsp; &amp;nbsp; int tuoi;&lt;br&gt;&amp;nbsp; &amp;nbsp; char soDienThoai[20];&lt;br&gt;&amp;nbsp; &amp;nbsp; char email[50];&lt;br&gt;" style="rounded=0;whiteSpace=wrap;html=1;" vertex="1" parent="WIyWlLk6GJQsqaUBKTNV-1">
          <mxGeometry x="500" y="-190" width="170" height="140" as="geometry" />
        </mxCell>
        <mxCell id="jaS103z9ZxJK8VQjzJih-12" style="edgeStyle=orthogonalEdgeStyle;rounded=0;orthogonalLoop=1;jettySize=auto;html=1;" edge="1" parent="WIyWlLk6GJQsqaUBKTNV-1" source="jaS103z9ZxJK8VQjzJih-13" target="jaS103z9ZxJK8VQjzJih-15">
          <mxGeometry relative="1" as="geometry" />
        </mxCell>
        <mxCell id="jaS103z9ZxJK8VQjzJih-13" value="start" style="ellipse;whiteSpace=wrap;html=1;" vertex="1" parent="WIyWlLk6GJQsqaUBKTNV-1">
          <mxGeometry x="100" width="120" height="80" as="geometry" />
        </mxCell>
        <mxCell id="jaS103z9ZxJK8VQjzJih-14" style="edgeStyle=orthogonalEdgeStyle;rounded=0;orthogonalLoop=1;jettySize=auto;html=1;" edge="1" parent="WIyWlLk6GJQsqaUBKTNV-1" source="jaS103z9ZxJK8VQjzJih-15" target="jaS103z9ZxJK8VQjzJih-16">
          <mxGeometry relative="1" as="geometry" />
        </mxCell>
        <mxCell id="jaS103z9ZxJK8VQjzJih-15" value="nhapThongTinSinhVien(struct SinhVien *sv)" style="rounded=0;whiteSpace=wrap;html=1;shape=label;fixedSize=1;" vertex="1" parent="WIyWlLk6GJQsqaUBKTNV-1">
          <mxGeometry x="290" y="10" width="270" height="60" as="geometry" />
        </mxCell>
        <mxCell id="jaS103z9ZxJK8VQjzJih-16" value="sv-&amp;gt;hoTen&lt;br&gt;&amp;amp;sv-&amp;gt;tuoi&lt;br&gt;&amp;nbsp;sv-&amp;gt;soDienThoai&lt;br&gt;&amp;nbsp;sv-&amp;gt;email" style="rhombus;whiteSpace=wrap;html=1;" vertex="1" parent="WIyWlLk6GJQsqaUBKTNV-1">
          <mxGeometry x="700" y="-30" width="220" height="140" as="geometry" />
        </mxCell>
        <mxCell id="jaS103z9ZxJK8VQjzJih-17" style="edgeStyle=orthogonalEdgeStyle;rounded=0;orthogonalLoop=1;jettySize=auto;html=1;" edge="1" parent="WIyWlLk6GJQsqaUBKTNV-1" source="jaS103z9ZxJK8VQjzJih-18" target="jaS103z9ZxJK8VQjzJih-20">
          <mxGeometry relative="1" as="geometry" />
        </mxCell>
        <mxCell id="jaS103z9ZxJK8VQjzJih-18" value="start" style="ellipse;whiteSpace=wrap;html=1;" vertex="1" parent="WIyWlLk6GJQsqaUBKTNV-1">
          <mxGeometry x="100" y="160" width="120" height="80" as="geometry" />
        </mxCell>
        <mxCell id="jaS103z9ZxJK8VQjzJih-19" style="edgeStyle=orthogonalEdgeStyle;rounded=0;orthogonalLoop=1;jettySize=auto;html=1;" edge="1" parent="WIyWlLk6GJQsqaUBKTNV-1" source="jaS103z9ZxJK8VQjzJih-20" target="jaS103z9ZxJK8VQjzJih-21">
          <mxGeometry relative="1" as="geometry" />
        </mxCell>
        <mxCell id="jaS103z9ZxJK8VQjzJih-20" value="xuatThongTinSinhVien(struct SinhVien sv)" style="rounded=0;whiteSpace=wrap;html=1;shape=label;fixedSize=1;" vertex="1" parent="WIyWlLk6GJQsqaUBKTNV-1">
          <mxGeometry x="290" y="170" width="270" height="60" as="geometry" />
        </mxCell>
        <mxCell id="jaS103z9ZxJK8VQjzJih-21" value="sv.hoTen&lt;br&gt;sv.tuoi&lt;br&gt;&amp;nbsp;sv.soDienThoai&lt;br&gt;&amp;nbsp;sv.email" style="rhombus;whiteSpace=wrap;html=1;" vertex="1" parent="WIyWlLk6GJQsqaUBKTNV-1">
          <mxGeometry x="700" y="130" width="220" height="140" as="geometry" />
        </mxCell>
        <mxCell id="jaS103z9ZxJK8VQjzJih-26" value="" style="edgeStyle=orthogonalEdgeStyle;rounded=0;orthogonalLoop=1;jettySize=auto;html=1;" edge="1" parent="WIyWlLk6GJQsqaUBKTNV-1" source="jaS103z9ZxJK8VQjzJih-23" target="jaS103z9ZxJK8VQjzJih-25">
          <mxGeometry relative="1" as="geometry" />
        </mxCell>
        <mxCell id="jaS103z9ZxJK8VQjzJih-23" value="&amp;nbsp;choice" style="rounded=0;whiteSpace=wrap;html=1;" vertex="1" parent="WIyWlLk6GJQsqaUBKTNV-1">
          <mxGeometry x="30" y="610" width="120" height="60" as="geometry" />
        </mxCell>
        <mxCell id="jaS103z9ZxJK8VQjzJih-28" style="edgeStyle=orthogonalEdgeStyle;rounded=0;orthogonalLoop=1;jettySize=auto;html=1;" edge="1" parent="WIyWlLk6GJQsqaUBKTNV-1" source="jaS103z9ZxJK8VQjzJih-25" target="jaS103z9ZxJK8VQjzJih-27">
          <mxGeometry relative="1" as="geometry" />
        </mxCell>
        <mxCell id="jaS103z9ZxJK8VQjzJih-31" value="true" style="edgeLabel;html=1;align=center;verticalAlign=middle;resizable=0;points=[];" vertex="1" connectable="0" parent="jaS103z9ZxJK8VQjzJih-28">
          <mxGeometry x="-0.0556" y="-1" relative="1" as="geometry">
            <mxPoint x="1" as="offset" />
          </mxGeometry>
        </mxCell>
        <mxCell id="jaS103z9ZxJK8VQjzJih-32" value="" style="edgeStyle=orthogonalEdgeStyle;rounded=0;orthogonalLoop=1;jettySize=auto;html=1;" edge="1" parent="WIyWlLk6GJQsqaUBKTNV-1" source="jaS103z9ZxJK8VQjzJih-25" target="jaS103z9ZxJK8VQjzJih-30">
          <mxGeometry relative="1" as="geometry" />
        </mxCell>
        <mxCell id="jaS103z9ZxJK8VQjzJih-33" value="false" style="edgeLabel;html=1;align=center;verticalAlign=middle;resizable=0;points=[];" vertex="1" connectable="0" parent="jaS103z9ZxJK8VQjzJih-32">
          <mxGeometry x="-0.3125" y="3" relative="1" as="geometry">
            <mxPoint as="offset" />
          </mxGeometry>
        </mxCell>
        <mxCell id="jaS103z9ZxJK8VQjzJih-25" value="choice==1" style="rhombus;whiteSpace=wrap;html=1;" vertex="1" parent="WIyWlLk6GJQsqaUBKTNV-1">
          <mxGeometry x="50" y="720" width="80" height="80" as="geometry" />
        </mxCell>
        <mxCell id="jaS103z9ZxJK8VQjzJih-29" style="edgeStyle=orthogonalEdgeStyle;rounded=0;orthogonalLoop=1;jettySize=auto;html=1;" edge="1" parent="WIyWlLk6GJQsqaUBKTNV-1" source="jaS103z9ZxJK8VQjzJih-27">
          <mxGeometry relative="1" as="geometry">
            <mxPoint x="90" y="580" as="targetPoint" />
            <Array as="points">
              <mxPoint x="680" y="760" />
              <mxPoint x="680" y="580" />
            </Array>
          </mxGeometry>
        </mxCell>
        <mxCell id="jaS103z9ZxJK8VQjzJih-27" value="nhapThongTinSinhVien(struct SinhVien *sv[n])&lt;br&gt;n++" style="rounded=0;whiteSpace=wrap;html=1;" vertex="1" parent="WIyWlLk6GJQsqaUBKTNV-1">
          <mxGeometry x="220" y="730" width="210" height="60" as="geometry" />
        </mxCell>
        <mxCell id="jaS103z9ZxJK8VQjzJih-35" style="edgeStyle=orthogonalEdgeStyle;rounded=0;orthogonalLoop=1;jettySize=auto;html=1;entryX=0;entryY=0.5;entryDx=0;entryDy=0;" edge="1" parent="WIyWlLk6GJQsqaUBKTNV-1" source="jaS103z9ZxJK8VQjzJih-30" target="jaS103z9ZxJK8VQjzJih-34">
          <mxGeometry relative="1" as="geometry" />
        </mxCell>
        <mxCell id="jaS103z9ZxJK8VQjzJih-37" value="true" style="edgeLabel;html=1;align=center;verticalAlign=middle;resizable=0;points=[];" vertex="1" connectable="0" parent="jaS103z9ZxJK8VQjzJih-35">
          <mxGeometry x="-0.15" y="-2" relative="1" as="geometry">
            <mxPoint as="offset" />
          </mxGeometry>
        </mxCell>
        <mxCell id="jaS103z9ZxJK8VQjzJih-39" value="" style="edgeStyle=orthogonalEdgeStyle;rounded=0;orthogonalLoop=1;jettySize=auto;html=1;" edge="1" parent="WIyWlLk6GJQsqaUBKTNV-1" source="jaS103z9ZxJK8VQjzJih-30" target="jaS103z9ZxJK8VQjzJih-38">
          <mxGeometry relative="1" as="geometry" />
        </mxCell>
        <mxCell id="jaS103z9ZxJK8VQjzJih-30" value="choice==2" style="rhombus;whiteSpace=wrap;html=1;" vertex="1" parent="WIyWlLk6GJQsqaUBKTNV-1">
          <mxGeometry x="50" y="880" width="80" height="80" as="geometry" />
        </mxCell>
        <mxCell id="jaS103z9ZxJK8VQjzJih-36" style="edgeStyle=orthogonalEdgeStyle;rounded=0;orthogonalLoop=1;jettySize=auto;html=1;" edge="1" parent="WIyWlLk6GJQsqaUBKTNV-1" source="jaS103z9ZxJK8VQjzJih-34">
          <mxGeometry relative="1" as="geometry">
            <mxPoint x="90" y="580" as="targetPoint" />
            <Array as="points">
              <mxPoint x="680" y="920" />
              <mxPoint x="680" y="580" />
            </Array>
          </mxGeometry>
        </mxCell>
        <mxCell id="jaS103z9ZxJK8VQjzJih-34" value="nhapThongTinSinhVien(struct SinhVien *sv[n])&lt;br style=&quot;border-color: var(--border-color);&quot;&gt;n++" style="rounded=0;whiteSpace=wrap;html=1;" vertex="1" parent="WIyWlLk6GJQsqaUBKTNV-1">
          <mxGeometry x="230" y="890" width="210" height="60" as="geometry" />
        </mxCell>
        <mxCell id="jaS103z9ZxJK8VQjzJih-41" value="" style="edgeStyle=orthogonalEdgeStyle;rounded=0;orthogonalLoop=1;jettySize=auto;html=1;" edge="1" parent="WIyWlLk6GJQsqaUBKTNV-1" source="jaS103z9ZxJK8VQjzJih-38" target="jaS103z9ZxJK8VQjzJih-40">
          <mxGeometry relative="1" as="geometry" />
        </mxCell>
        <mxCell id="jaS103z9ZxJK8VQjzJih-53" style="edgeStyle=orthogonalEdgeStyle;rounded=0;orthogonalLoop=1;jettySize=auto;html=1;" edge="1" parent="WIyWlLk6GJQsqaUBKTNV-1" source="jaS103z9ZxJK8VQjzJih-38" target="jaS103z9ZxJK8VQjzJih-52">
          <mxGeometry relative="1" as="geometry" />
        </mxCell>
        <mxCell id="jaS103z9ZxJK8VQjzJih-38" value="choice==3" style="rhombus;whiteSpace=wrap;html=1;" vertex="1" parent="WIyWlLk6GJQsqaUBKTNV-1">
          <mxGeometry x="50" y="1040" width="80" height="80" as="geometry" />
        </mxCell>
        <mxCell id="jaS103z9ZxJK8VQjzJih-43" value="" style="edgeStyle=orthogonalEdgeStyle;rounded=0;orthogonalLoop=1;jettySize=auto;html=1;" edge="1" parent="WIyWlLk6GJQsqaUBKTNV-1" source="jaS103z9ZxJK8VQjzJih-40" target="jaS103z9ZxJK8VQjzJih-42">
          <mxGeometry relative="1" as="geometry" />
        </mxCell>
        <mxCell id="jaS103z9ZxJK8VQjzJih-40" value="i" style="rounded=0;whiteSpace=wrap;html=1;" vertex="1" parent="WIyWlLk6GJQsqaUBKTNV-1">
          <mxGeometry x="230" y="1050" width="120" height="60" as="geometry" />
        </mxCell>
        <mxCell id="jaS103z9ZxJK8VQjzJih-45" value="" style="edgeStyle=orthogonalEdgeStyle;rounded=0;orthogonalLoop=1;jettySize=auto;html=1;" edge="1" parent="WIyWlLk6GJQsqaUBKTNV-1" source="jaS103z9ZxJK8VQjzJih-42" target="jaS103z9ZxJK8VQjzJih-44">
          <mxGeometry relative="1" as="geometry" />
        </mxCell>
        <mxCell id="jaS103z9ZxJK8VQjzJih-46" value="true" style="edgeLabel;html=1;align=center;verticalAlign=middle;resizable=0;points=[];" vertex="1" connectable="0" parent="jaS103z9ZxJK8VQjzJih-45">
          <mxGeometry x="-0.2449" y="-3" relative="1" as="geometry">
            <mxPoint y="1" as="offset" />
          </mxGeometry>
        </mxCell>
        <mxCell id="jaS103z9ZxJK8VQjzJih-48" value="" style="edgeStyle=orthogonalEdgeStyle;rounded=0;orthogonalLoop=1;jettySize=auto;html=1;" edge="1" parent="WIyWlLk6GJQsqaUBKTNV-1" source="jaS103z9ZxJK8VQjzJih-42" target="jaS103z9ZxJK8VQjzJih-47">
          <mxGeometry relative="1" as="geometry" />
        </mxCell>
        <mxCell id="jaS103z9ZxJK8VQjzJih-49" value="false" style="edgeLabel;html=1;align=center;verticalAlign=middle;resizable=0;points=[];" vertex="1" connectable="0" parent="jaS103z9ZxJK8VQjzJih-48">
          <mxGeometry x="-0.66" y="4" relative="1" as="geometry">
            <mxPoint y="1" as="offset" />
          </mxGeometry>
        </mxCell>
        <mxCell id="jaS103z9ZxJK8VQjzJih-42" value="i &amp;gt;= 0 &amp;amp;&amp;amp; i &amp;lt; n" style="rhombus;whiteSpace=wrap;html=1;" vertex="1" parent="WIyWlLk6GJQsqaUBKTNV-1">
          <mxGeometry x="450" y="1040" width="100" height="80" as="geometry" />
        </mxCell>
        <mxCell id="jaS103z9ZxJK8VQjzJih-51" style="edgeStyle=orthogonalEdgeStyle;rounded=0;orthogonalLoop=1;jettySize=auto;html=1;" edge="1" parent="WIyWlLk6GJQsqaUBKTNV-1" source="jaS103z9ZxJK8VQjzJih-44">
          <mxGeometry relative="1" as="geometry">
            <mxPoint x="90" y="580" as="targetPoint" />
            <Array as="points">
              <mxPoint x="680" y="1199" />
              <mxPoint x="680" y="580" />
            </Array>
          </mxGeometry>
        </mxCell>
        <mxCell id="jaS103z9ZxJK8VQjzJih-44" value="nhapThongTinSinhVien(struct SinhVien *sv[n])&lt;br style=&quot;border-color: var(--border-color);&quot;&gt;" style="rounded=0;whiteSpace=wrap;html=1;" vertex="1" parent="WIyWlLk6GJQsqaUBKTNV-1">
          <mxGeometry x="410" y="1169" width="180" height="60" as="geometry" />
        </mxCell>
        <mxCell id="jaS103z9ZxJK8VQjzJih-50" style="edgeStyle=orthogonalEdgeStyle;rounded=0;orthogonalLoop=1;jettySize=auto;html=1;exitX=1;exitY=0.5;exitDx=0;exitDy=0;" edge="1" parent="WIyWlLk6GJQsqaUBKTNV-1" source="jaS103z9ZxJK8VQjzJih-47">
          <mxGeometry relative="1" as="geometry">
            <mxPoint x="90" y="580" as="targetPoint" />
            <Array as="points">
              <mxPoint x="680" y="1080" />
              <mxPoint x="680" y="580" />
            </Array>
          </mxGeometry>
        </mxCell>
        <mxCell id="jaS103z9ZxJK8VQjzJih-47" value="k hop le" style="whiteSpace=wrap;html=1;shape=parallelogram;perimeter=parallelogramPerimeter;fixedSize=1;" vertex="1" parent="WIyWlLk6GJQsqaUBKTNV-1">
          <mxGeometry x="580" y="1040" width="80" height="80" as="geometry" />
        </mxCell>
        <mxCell id="jaS103z9ZxJK8VQjzJih-55" value="" style="edgeStyle=orthogonalEdgeStyle;rounded=0;orthogonalLoop=1;jettySize=auto;html=1;" edge="1" parent="WIyWlLk6GJQsqaUBKTNV-1" source="jaS103z9ZxJK8VQjzJih-52" target="jaS103z9ZxJK8VQjzJih-54">
          <mxGeometry relative="1" as="geometry" />
        </mxCell>
        <mxCell id="jaS103z9ZxJK8VQjzJih-74" style="edgeStyle=orthogonalEdgeStyle;rounded=0;orthogonalLoop=1;jettySize=auto;html=1;" edge="1" parent="WIyWlLk6GJQsqaUBKTNV-1" source="jaS103z9ZxJK8VQjzJih-52" target="jaS103z9ZxJK8VQjzJih-73">
          <mxGeometry relative="1" as="geometry" />
        </mxCell>
        <mxCell id="jaS103z9ZxJK8VQjzJih-52" value="choice==4" style="rhombus;whiteSpace=wrap;html=1;" vertex="1" parent="WIyWlLk6GJQsqaUBKTNV-1">
          <mxGeometry x="50" y="1370" width="80" height="80" as="geometry" />
        </mxCell>
        <mxCell id="jaS103z9ZxJK8VQjzJih-57" value="" style="edgeStyle=orthogonalEdgeStyle;rounded=0;orthogonalLoop=1;jettySize=auto;html=1;" edge="1" parent="WIyWlLk6GJQsqaUBKTNV-1" source="jaS103z9ZxJK8VQjzJih-54" target="jaS103z9ZxJK8VQjzJih-56">
          <mxGeometry relative="1" as="geometry" />
        </mxCell>
        <mxCell id="jaS103z9ZxJK8VQjzJih-54" value="i" style="rounded=0;whiteSpace=wrap;html=1;" vertex="1" parent="WIyWlLk6GJQsqaUBKTNV-1">
          <mxGeometry x="180" y="1380" width="120" height="60" as="geometry" />
        </mxCell>
        <mxCell id="jaS103z9ZxJK8VQjzJih-59" value="" style="edgeStyle=orthogonalEdgeStyle;rounded=0;orthogonalLoop=1;jettySize=auto;html=1;" edge="1" parent="WIyWlLk6GJQsqaUBKTNV-1" source="jaS103z9ZxJK8VQjzJih-56" target="jaS103z9ZxJK8VQjzJih-58">
          <mxGeometry relative="1" as="geometry" />
        </mxCell>
        <mxCell id="jaS103z9ZxJK8VQjzJih-60" value="false" style="edgeLabel;html=1;align=center;verticalAlign=middle;resizable=0;points=[];" vertex="1" connectable="0" parent="jaS103z9ZxJK8VQjzJih-59">
          <mxGeometry x="-0.26" y="3" relative="1" as="geometry">
            <mxPoint as="offset" />
          </mxGeometry>
        </mxCell>
        <mxCell id="jaS103z9ZxJK8VQjzJih-63" value="" style="edgeStyle=orthogonalEdgeStyle;rounded=0;orthogonalLoop=1;jettySize=auto;html=1;" edge="1" parent="WIyWlLk6GJQsqaUBKTNV-1" source="jaS103z9ZxJK8VQjzJih-56" target="jaS103z9ZxJK8VQjzJih-62">
          <mxGeometry relative="1" as="geometry" />
        </mxCell>
        <mxCell id="jaS103z9ZxJK8VQjzJih-56" value="i &amp;gt;= 0 &amp;amp;&amp;amp; i &amp;lt; n" style="rhombus;whiteSpace=wrap;html=1;" vertex="1" parent="WIyWlLk6GJQsqaUBKTNV-1">
          <mxGeometry x="380" y="1370" width="120" height="80" as="geometry" />
        </mxCell>
        <mxCell id="jaS103z9ZxJK8VQjzJih-61" style="edgeStyle=orthogonalEdgeStyle;rounded=0;orthogonalLoop=1;jettySize=auto;html=1;" edge="1" parent="WIyWlLk6GJQsqaUBKTNV-1" source="jaS103z9ZxJK8VQjzJih-58">
          <mxGeometry relative="1" as="geometry">
            <mxPoint x="90" y="580" as="targetPoint" />
            <Array as="points">
              <mxPoint x="680" y="1410" />
              <mxPoint x="680" y="580" />
            </Array>
          </mxGeometry>
        </mxCell>
        <mxCell id="jaS103z9ZxJK8VQjzJih-58" value="k hop le" style="shape=parallelogram;perimeter=parallelogramPerimeter;whiteSpace=wrap;html=1;fixedSize=1;" vertex="1" parent="WIyWlLk6GJQsqaUBKTNV-1">
          <mxGeometry x="525" y="1380" width="120" height="60" as="geometry" />
        </mxCell>
        <mxCell id="jaS103z9ZxJK8VQjzJih-65" value="" style="edgeStyle=orthogonalEdgeStyle;rounded=0;orthogonalLoop=1;jettySize=auto;html=1;" edge="1" parent="WIyWlLk6GJQsqaUBKTNV-1" source="jaS103z9ZxJK8VQjzJih-62" target="jaS103z9ZxJK8VQjzJih-64">
          <mxGeometry relative="1" as="geometry" />
        </mxCell>
        <mxCell id="jaS103z9ZxJK8VQjzJih-62" value="j=i" style="rounded=0;whiteSpace=wrap;html=1;" vertex="1" parent="WIyWlLk6GJQsqaUBKTNV-1">
          <mxGeometry x="380" y="1500" width="120" height="60" as="geometry" />
        </mxCell>
        <mxCell id="jaS103z9ZxJK8VQjzJih-67" value="" style="edgeStyle=orthogonalEdgeStyle;rounded=0;orthogonalLoop=1;jettySize=auto;html=1;" edge="1" parent="WIyWlLk6GJQsqaUBKTNV-1" source="jaS103z9ZxJK8VQjzJih-64" target="jaS103z9ZxJK8VQjzJih-66">
          <mxGeometry relative="1" as="geometry" />
        </mxCell>
        <mxCell id="jaS103z9ZxJK8VQjzJih-71" style="edgeStyle=orthogonalEdgeStyle;rounded=0;orthogonalLoop=1;jettySize=auto;html=1;entryX=0.5;entryY=0;entryDx=0;entryDy=0;" edge="1" parent="WIyWlLk6GJQsqaUBKTNV-1" source="jaS103z9ZxJK8VQjzJih-64" target="jaS103z9ZxJK8VQjzJih-70">
          <mxGeometry relative="1" as="geometry" />
        </mxCell>
        <mxCell id="jaS103z9ZxJK8VQjzJih-64" value="j &amp;lt; n - 1;" style="rhombus;whiteSpace=wrap;html=1;" vertex="1" parent="WIyWlLk6GJQsqaUBKTNV-1">
          <mxGeometry x="400" y="1610" width="80" height="80" as="geometry" />
        </mxCell>
        <mxCell id="jaS103z9ZxJK8VQjzJih-69" style="edgeStyle=orthogonalEdgeStyle;rounded=0;orthogonalLoop=1;jettySize=auto;html=1;" edge="1" parent="WIyWlLk6GJQsqaUBKTNV-1" source="jaS103z9ZxJK8VQjzJih-66">
          <mxGeometry relative="1" as="geometry">
            <mxPoint x="440" y="1580" as="targetPoint" />
            <Array as="points">
              <mxPoint x="590" y="1580" />
            </Array>
          </mxGeometry>
        </mxCell>
        <mxCell id="jaS103z9ZxJK8VQjzJih-66" value="sv[j] = sv[j + 1];&lt;br&gt;j++" style="rounded=0;whiteSpace=wrap;html=1;" vertex="1" parent="WIyWlLk6GJQsqaUBKTNV-1">
          <mxGeometry x="530" y="1620" width="120" height="60" as="geometry" />
        </mxCell>
        <mxCell id="jaS103z9ZxJK8VQjzJih-68" value="true" style="text;html=1;align=center;verticalAlign=middle;resizable=0;points=[];autosize=1;strokeColor=none;fillColor=none;" vertex="1" parent="WIyWlLk6GJQsqaUBKTNV-1">
          <mxGeometry x="480" y="1628" width="40" height="30" as="geometry" />
        </mxCell>
        <mxCell id="jaS103z9ZxJK8VQjzJih-72" style="edgeStyle=orthogonalEdgeStyle;rounded=0;orthogonalLoop=1;jettySize=auto;html=1;exitX=1;exitY=0.5;exitDx=0;exitDy=0;" edge="1" parent="WIyWlLk6GJQsqaUBKTNV-1" source="jaS103z9ZxJK8VQjzJih-70">
          <mxGeometry relative="1" as="geometry">
            <mxPoint x="90" y="585" as="targetPoint" />
            <mxPoint x="440" y="1719" as="sourcePoint" />
            <Array as="points">
              <mxPoint x="680" y="1754" />
              <mxPoint x="680" y="580" />
              <mxPoint x="90" y="580" />
            </Array>
          </mxGeometry>
        </mxCell>
        <mxCell id="jaS103z9ZxJK8VQjzJih-70" value="n--" style="rounded=0;whiteSpace=wrap;html=1;" vertex="1" parent="WIyWlLk6GJQsqaUBKTNV-1">
          <mxGeometry x="380" y="1724" width="120" height="60" as="geometry" />
        </mxCell>
        <mxCell id="jaS103z9ZxJK8VQjzJih-77" value="" style="edgeStyle=orthogonalEdgeStyle;rounded=0;orthogonalLoop=1;jettySize=auto;html=1;" edge="1" parent="WIyWlLk6GJQsqaUBKTNV-1" source="jaS103z9ZxJK8VQjzJih-73" target="jaS103z9ZxJK8VQjzJih-75">
          <mxGeometry relative="1" as="geometry" />
        </mxCell>
        <mxCell id="jaS103z9ZxJK8VQjzJih-88" style="edgeStyle=orthogonalEdgeStyle;rounded=0;orthogonalLoop=1;jettySize=auto;html=1;" edge="1" parent="WIyWlLk6GJQsqaUBKTNV-1" source="jaS103z9ZxJK8VQjzJih-73" target="jaS103z9ZxJK8VQjzJih-86">
          <mxGeometry relative="1" as="geometry" />
        </mxCell>
        <mxCell id="jaS103z9ZxJK8VQjzJih-73" value="choice==5" style="rhombus;whiteSpace=wrap;html=1;" vertex="1" parent="WIyWlLk6GJQsqaUBKTNV-1">
          <mxGeometry x="50" y="1870" width="80" height="80" as="geometry" />
        </mxCell>
        <mxCell id="jaS103z9ZxJK8VQjzJih-79" value="" style="edgeStyle=orthogonalEdgeStyle;rounded=0;orthogonalLoop=1;jettySize=auto;html=1;" edge="1" parent="WIyWlLk6GJQsqaUBKTNV-1" source="jaS103z9ZxJK8VQjzJih-75" target="jaS103z9ZxJK8VQjzJih-78">
          <mxGeometry relative="1" as="geometry" />
        </mxCell>
        <mxCell id="jaS103z9ZxJK8VQjzJih-75" value="i=0" style="rounded=0;whiteSpace=wrap;html=1;" vertex="1" parent="WIyWlLk6GJQsqaUBKTNV-1">
          <mxGeometry x="230" y="1880" width="120" height="60" as="geometry" />
        </mxCell>
        <mxCell id="jaS103z9ZxJK8VQjzJih-81" value="" style="edgeStyle=orthogonalEdgeStyle;rounded=0;orthogonalLoop=1;jettySize=auto;html=1;" edge="1" parent="WIyWlLk6GJQsqaUBKTNV-1" source="jaS103z9ZxJK8VQjzJih-78" target="jaS103z9ZxJK8VQjzJih-80">
          <mxGeometry relative="1" as="geometry" />
        </mxCell>
        <mxCell id="jaS103z9ZxJK8VQjzJih-82" value="true" style="edgeLabel;html=1;align=center;verticalAlign=middle;resizable=0;points=[];" vertex="1" connectable="0" parent="jaS103z9ZxJK8VQjzJih-81">
          <mxGeometry x="0.22" relative="1" as="geometry">
            <mxPoint as="offset" />
          </mxGeometry>
        </mxCell>
        <mxCell id="jaS103z9ZxJK8VQjzJih-84" style="edgeStyle=orthogonalEdgeStyle;rounded=0;orthogonalLoop=1;jettySize=auto;html=1;exitX=0.5;exitY=1;exitDx=0;exitDy=0;" edge="1" parent="WIyWlLk6GJQsqaUBKTNV-1" source="jaS103z9ZxJK8VQjzJih-78">
          <mxGeometry relative="1" as="geometry">
            <mxPoint x="90" y="580" as="targetPoint" />
            <mxPoint x="380" y="1940" as="sourcePoint" />
            <Array as="points">
              <mxPoint x="440" y="2060" />
              <mxPoint x="680" y="2060" />
              <mxPoint x="680" y="580" />
            </Array>
          </mxGeometry>
        </mxCell>
        <mxCell id="jaS103z9ZxJK8VQjzJih-85" value="false" style="edgeLabel;html=1;align=center;verticalAlign=middle;resizable=0;points=[];" vertex="1" connectable="0" parent="jaS103z9ZxJK8VQjzJih-84">
          <mxGeometry x="-0.9729" y="-1" relative="1" as="geometry">
            <mxPoint as="offset" />
          </mxGeometry>
        </mxCell>
        <mxCell id="jaS103z9ZxJK8VQjzJih-78" value="i&amp;lt;n" style="rhombus;whiteSpace=wrap;html=1;" vertex="1" parent="WIyWlLk6GJQsqaUBKTNV-1">
          <mxGeometry x="400" y="1870" width="80" height="80" as="geometry" />
        </mxCell>
        <mxCell id="jaS103z9ZxJK8VQjzJih-83" style="edgeStyle=orthogonalEdgeStyle;rounded=0;orthogonalLoop=1;jettySize=auto;html=1;" edge="1" parent="WIyWlLk6GJQsqaUBKTNV-1" source="jaS103z9ZxJK8VQjzJih-80">
          <mxGeometry relative="1" as="geometry">
            <mxPoint x="380" y="1910" as="targetPoint" />
            <Array as="points">
              <mxPoint x="600" y="1810" />
              <mxPoint x="380" y="1810" />
            </Array>
          </mxGeometry>
        </mxCell>
        <mxCell id="jaS103z9ZxJK8VQjzJih-80" value="xuatThongTinSinhVien(sv[i])" style="rounded=0;whiteSpace=wrap;html=1;" vertex="1" parent="WIyWlLk6GJQsqaUBKTNV-1">
          <mxGeometry x="525" y="1870" width="155" height="80" as="geometry" />
        </mxCell>
        <mxCell id="jaS103z9ZxJK8VQjzJih-90" value="" style="edgeStyle=orthogonalEdgeStyle;rounded=0;orthogonalLoop=1;jettySize=auto;html=1;" edge="1" parent="WIyWlLk6GJQsqaUBKTNV-1" source="jaS103z9ZxJK8VQjzJih-86" target="jaS103z9ZxJK8VQjzJih-89">
          <mxGeometry relative="1" as="geometry" />
        </mxCell>
        <mxCell id="jaS103z9ZxJK8VQjzJih-94" style="edgeStyle=orthogonalEdgeStyle;rounded=0;orthogonalLoop=1;jettySize=auto;html=1;" edge="1" parent="WIyWlLk6GJQsqaUBKTNV-1" source="jaS103z9ZxJK8VQjzJih-86" target="jaS103z9ZxJK8VQjzJih-93">
          <mxGeometry relative="1" as="geometry" />
        </mxCell>
        <mxCell id="jaS103z9ZxJK8VQjzJih-86" value="choice==6" style="rhombus;whiteSpace=wrap;html=1;" vertex="1" parent="WIyWlLk6GJQsqaUBKTNV-1">
          <mxGeometry x="50" y="2020" width="80" height="80" as="geometry" />
        </mxCell>
        <mxCell id="jaS103z9ZxJK8VQjzJih-92" style="edgeStyle=orthogonalEdgeStyle;rounded=0;orthogonalLoop=1;jettySize=auto;html=1;entryX=0;entryY=0.5;entryDx=0;entryDy=0;" edge="1" parent="WIyWlLk6GJQsqaUBKTNV-1" source="jaS103z9ZxJK8VQjzJih-89" target="jaS103z9ZxJK8VQjzJih-91">
          <mxGeometry relative="1" as="geometry" />
        </mxCell>
        <mxCell id="jaS103z9ZxJK8VQjzJih-89" value="thoat" style="shape=parallelogram;perimeter=parallelogramPerimeter;whiteSpace=wrap;html=1;fixedSize=1;" vertex="1" parent="WIyWlLk6GJQsqaUBKTNV-1">
          <mxGeometry x="200" y="2030" width="120" height="60" as="geometry" />
        </mxCell>
        <mxCell id="jaS103z9ZxJK8VQjzJih-91" value="end" style="ellipse;whiteSpace=wrap;html=1;" vertex="1" parent="WIyWlLk6GJQsqaUBKTNV-1">
          <mxGeometry x="440" y="2120" width="120" height="80" as="geometry" />
        </mxCell>
        <mxCell id="jaS103z9ZxJK8VQjzJih-95" style="edgeStyle=orthogonalEdgeStyle;rounded=0;orthogonalLoop=1;jettySize=auto;html=1;exitX=0;exitY=0.5;exitDx=0;exitDy=0;" edge="1" parent="WIyWlLk6GJQsqaUBKTNV-1" source="jaS103z9ZxJK8VQjzJih-93">
          <mxGeometry relative="1" as="geometry">
            <mxPoint x="90" y="580" as="targetPoint" />
            <Array as="points">
              <mxPoint x="10" y="2200" />
              <mxPoint x="10" y="580" />
            </Array>
          </mxGeometry>
        </mxCell>
        <mxCell id="jaS103z9ZxJK8VQjzJih-93" value="nhap lai" style="shape=parallelogram;perimeter=parallelogramPerimeter;whiteSpace=wrap;html=1;fixedSize=1;" vertex="1" parent="WIyWlLk6GJQsqaUBKTNV-1">
          <mxGeometry x="30" y="2170" width="120" height="60" as="geometry" />
        </mxCell>
      </root>
    </mxGraphModel>
  </diagram>
</mxfile>
